<svg width="198" height="73" viewBox="0 0 198 73" fill="none" xmlns="http://www.w3.org/2000/svg">
<path d="M42.1214 4.30164L94.8927 4.30164L97.9372 7.34613L100.982 4.30164L180.138 4.30164C185.183 4.30164 189.272 8.39083 189.272 13.4351V32.2095M153.245 68.236H100.982L97.9372 64.6841L94.8927 68.236H17.7655C12.1607 68.236 7.61719 63.6924 7.61719 58.0877V41.343" stroke="#B69A68" stroke-width="2.02966" stroke-linecap="round"/>
<path d="M62.0613 44.8356C60.9478 44.8356 59.9148 44.6378 58.9625 44.2422C58.0248 43.832 57.2044 43.2679 56.5011 42.55C55.7978 41.8174 55.2557 40.975 54.8748 40.0227C54.4939 39.0557 54.3034 38.0228 54.3034 36.9239C54.3034 35.8251 54.4939 34.7995 54.8748 33.8471C55.2557 32.8802 55.7978 32.0377 56.5011 31.3198C57.2044 30.6019 58.0248 30.0378 58.9625 29.6276C59.9148 29.2173 60.9478 29.0122 62.0613 29.0122C63.3066 29.0122 64.3835 29.2173 65.2919 29.6276C66.2002 30.0378 67.0061 30.5946 67.7093 31.2978L65.9951 33.012C65.5409 32.5139 64.9842 32.1256 64.3249 31.8472C63.6802 31.5689 62.9257 31.4297 62.0613 31.4297C61.2994 31.4297 60.6035 31.5615 59.9734 31.8253C59.3434 32.089 58.794 32.4699 58.3252 32.9681C57.871 33.4516 57.5194 34.0303 57.2703 34.7042C57.0212 35.3782 56.8967 36.1181 56.8967 36.9239C56.8967 37.7297 57.0212 38.4696 57.2703 39.1436C57.5194 39.8175 57.871 40.4036 58.3252 40.9017C58.794 41.3852 59.3434 41.7588 59.9734 42.0226C60.6035 42.2863 61.2994 42.4182 62.0613 42.4182C62.9989 42.4182 63.7901 42.279 64.4348 42.0006C65.0941 41.7076 65.6508 41.312 66.105 40.8138L67.8192 42.528C67.1159 43.2459 66.2882 43.81 65.3358 44.2203C64.3835 44.6305 63.292 44.8356 62.0613 44.8356ZM74.0742 44.8356C73.1805 44.8356 72.382 44.6378 71.6787 44.2422C70.9901 43.8467 70.448 43.3046 70.0524 42.6159C69.6715 41.9127 69.481 41.1069 69.481 40.1985V34.0669H71.8985V40.0886C71.8985 40.6014 71.9791 41.0409 72.1403 41.4072C72.3161 41.7588 72.5651 42.0299 72.8875 42.2204C73.2244 42.4108 73.62 42.5061 74.0742 42.5061C74.7775 42.5061 75.3123 42.3009 75.6785 41.8907C76.0595 41.4658 76.2499 40.8651 76.2499 40.0886V34.0669H78.6674V40.1985C78.6674 41.1215 78.4696 41.9347 78.074 42.6379C77.6931 43.3265 77.1583 43.8686 76.4697 44.2642C75.7811 44.6451 74.9826 44.8356 74.0742 44.8356ZM81.0981 44.6158V34.0669H83.5155V44.6158H81.0981ZM83.5155 38.748L82.6804 38.3304C82.6804 36.9972 82.9734 35.9203 83.5595 35.0998C84.1602 34.2647 85.0613 33.8471 86.2627 33.8471C86.7901 33.8471 87.2663 33.9424 87.6912 34.1328C88.116 34.3233 88.5116 34.631 88.8779 35.0559L87.2956 36.6822C87.1051 36.4771 86.8927 36.3305 86.6582 36.2426C86.4238 36.1547 86.1528 36.1108 85.8451 36.1108C85.1711 36.1108 84.6144 36.3232 84.1749 36.7481C83.7353 37.173 83.5155 37.8396 83.5155 38.748ZM90.0477 44.6158V34.0669H92.4651V44.6158H90.0477ZM92.4651 38.748L91.63 38.3304C91.63 36.9972 91.923 35.9203 92.5091 35.0998C93.1098 34.2647 94.0108 33.8471 95.2123 33.8471C95.7397 33.8471 96.2159 33.9424 96.6408 34.1328C97.0656 34.3233 97.4612 34.631 97.8275 35.0559L96.2452 36.6822C96.0547 36.4771 95.8423 36.3305 95.6078 36.2426C95.3734 36.1547 95.1024 36.1108 94.7947 36.1108C94.1207 36.1108 93.564 36.3232 93.1244 36.7481C92.6849 37.173 92.4651 37.8396 92.4651 38.748ZM99.3836 44.6158V34.0669H101.801V44.6158H99.3836ZM99.3396 32.5505L98.2408 31.4517L101.054 27.8694L102.922 29.7375L99.3396 32.5505ZM109.348 44.8356C108.308 44.8356 107.363 44.5939 106.513 44.1104C105.678 43.6269 105.019 42.9676 104.535 42.1325C104.052 41.2973 103.81 40.367 103.81 39.3414C103.81 38.3011 104.052 37.3708 104.535 36.5503C105.019 35.7152 105.678 35.0559 106.513 34.5724C107.363 34.0889 108.308 33.8471 109.348 33.8471C110.169 33.8471 110.931 34.0083 111.634 34.3306C112.352 34.6383 112.96 35.0852 113.458 35.6712L111.876 37.2755C111.568 36.9093 111.194 36.6382 110.755 36.4624C110.33 36.2719 109.861 36.1767 109.348 36.1767C108.748 36.1767 108.213 36.3159 107.744 36.5943C107.29 36.858 106.931 37.2243 106.667 37.6931C106.418 38.162 106.294 38.7114 106.294 39.3414C106.294 39.9567 106.418 40.5062 106.667 40.9897C106.931 41.4585 107.29 41.8321 107.744 42.1105C108.213 42.3742 108.748 42.5061 109.348 42.5061C109.861 42.5061 110.33 42.4182 110.755 42.2423C111.194 42.0519 111.568 41.7735 111.876 41.4072L113.458 43.0115C112.96 43.5976 112.352 44.0518 111.634 44.3741C110.931 44.6818 110.169 44.8356 109.348 44.8356ZM119.53 44.8356C118.637 44.8356 117.838 44.6378 117.135 44.2422C116.446 43.8467 115.904 43.3046 115.509 42.6159C115.128 41.9127 114.937 41.1069 114.937 40.1985V34.0669H117.355V40.0886C117.355 40.6014 117.435 41.0409 117.596 41.4072C117.772 41.7588 118.021 42.0299 118.344 42.2204C118.681 42.4108 119.076 42.5061 119.53 42.5061C120.234 42.5061 120.768 42.3009 121.135 41.8907C121.516 41.4658 121.706 40.8651 121.706 40.0886V34.0669H124.124V40.1985C124.124 41.1215 123.926 41.9347 123.53 42.6379C123.149 43.3265 122.615 43.8686 121.926 44.2642C121.237 44.6451 120.439 44.8356 119.53 44.8356ZM126.554 44.6158V28.7925H128.972V44.6158H126.554ZM136.497 44.8356C135.472 44.8356 134.541 44.5939 133.706 44.1104C132.871 43.6122 132.204 42.9456 131.706 42.1105C131.223 41.2754 130.981 40.345 130.981 39.3194C130.981 38.2938 131.223 37.3708 131.706 36.5503C132.204 35.7298 132.871 35.0779 133.706 34.5944C134.541 34.0962 135.472 33.8471 136.497 33.8471C137.537 33.8471 138.475 34.0889 139.31 34.5724C140.145 35.0559 140.805 35.7152 141.288 36.5503C141.786 37.3708 142.035 38.2938 142.035 39.3194C142.035 40.345 141.786 41.2754 141.288 42.1105C140.805 42.9456 140.145 43.6122 139.31 44.1104C138.475 44.5939 137.537 44.8356 136.497 44.8356ZM136.497 42.5061C137.098 42.5061 137.625 42.3742 138.079 42.1105C138.548 41.8321 138.907 41.4512 139.156 40.9677C139.42 40.4842 139.552 39.9348 139.552 39.3194C139.552 38.704 139.42 38.162 139.156 37.6931C138.893 37.2243 138.534 36.858 138.079 36.5943C137.625 36.3159 137.098 36.1767 136.497 36.1767C135.911 36.1767 135.384 36.3159 134.915 36.5943C134.461 36.858 134.102 37.2243 133.838 37.6931C133.589 38.162 133.464 38.704 133.464 39.3194C133.464 39.9348 133.589 40.4842 133.838 40.9677C134.102 41.4512 134.461 41.8321 134.915 42.1105C135.384 42.3742 135.911 42.5061 136.497 42.5061Z" fill="#49D59C"/>
<path d="M34.3133 4.00513C31.643 4.00077 30.3784 6.14984 32.677 6.74701C34.9013 7.34405 34.4544 8.45598 32.0066 8.45199C30.1522 8.44896 29.7819 8.07747 29.562 6.44522C29.196 3.47754 27.7123 3.5493 26.4465 6.51432C25.4785 8.73805 24.9586 9.18226 23.03 9.17912C21.1014 9.17597 20.5073 9.54589 19.8367 11.3992C19.0918 13.3266 18.6464 13.5484 15.6048 13.766C11.5246 14.056 10.7795 16.0576 14.7103 16.4349C17.8252 16.7367 17.4517 18.368 14.2616 18.6595C11.2199 18.9512 11.1428 20.7314 14.1088 21.4038C16.9265 22.0018 16.9987 23.2629 14.2541 23.2584C12.6964 23.2559 11.8795 23.848 10.8379 25.7749C9.2753 28.7394 9.71843 29.927 12.3146 29.9312C13.3531 29.9329 13.946 30.2306 13.7228 30.6753C13.4996 31.0458 12.238 31.4146 11.0512 31.4127C9.19677 31.4097 8.60408 30.9636 7.93939 29.1823C6.75777 25.9908 4.90238 26.5812 4.59986 30.1412C4.4486 31.9212 4.00197 32.8847 3.48309 32.6614C2.29687 32.2885 2.00524 29.1726 2.89936 26.7263C3.49531 25.1695 4.16363 24.7255 5.8697 24.7283C7.05653 24.7303 8.31814 24.3614 8.61557 23.9168C8.91301 23.4723 9.21504 20.209 9.3692 16.6487C9.60141 10.7149 10.3464 8.71337 11.5303 10.5697C11.7521 11.0152 13.0866 11.3882 14.496 11.3905C16.5729 11.3939 17.0928 11.0239 17.7634 9.17053C18.1363 7.91013 18.8797 6.94704 19.2506 6.94764C20.3632 6.94946 20.2939 3.98226 19.1814 3.90627C18.6621 3.90542 17.0303 3.82858 15.6211 3.75211C13.8411 3.60085 12.9516 3.22852 12.8048 2.26397C12.584 1.22513 13.1036 1.00345 16.5157 1.00902C21.0405 1.0164 22.3002 1.8344 22.2952 4.87565C22.2907 7.62019 23.2553 7.47341 24.5953 4.50852C25.6377 2.13655 25.7118 2.13667 30.7559 2.1449C34.2422 2.15058 36.0219 2.4502 36.2435 3.04397C36.3908 3.71181 35.7227 4.00743 34.3133 4.00513Z" fill="#49D59C"/>
<path d="M9.90112 8.56444L7.08204 8.78238L6.85261 13.0101C6.62258 17.6087 5.28485 19.1642 2.17027 18.6399C-0.128606 18.2653 0.170158 17.0048 2.61872 16.5637C5.36399 16.1231 5.51477 14.6398 2.99481 13.3747C1.36425 12.5561 1.14281 11.8881 0.926808 7.88221C0.71081 3.8763 0.860132 3.28312 2.19604 2.84024C4.64509 2.10246 5.68175 3.21681 3.82491 4.69732C2.41385 5.7335 2.19036 6.32655 2.63167 8.62676C3.22 11.7432 5.22169 12.414 5.22641 9.52112C5.2281 8.48264 5.89811 7.00019 6.71539 6.18558C7.53266 5.37096 8.20243 4.03687 8.20376 3.22092C8.20509 2.40498 8.57707 1.73799 8.94795 1.7386C9.39301 1.73932 9.68815 2.7041 9.68609 3.96511C9.68331 5.67118 9.97917 6.1909 11.166 6.19284C13.9847 6.19744 12.7944 8.34663 9.90112 8.56444Z" fill="#49D59C"/>
<path d="M163.494 69.6135C166.164 69.6179 167.429 67.4688 165.13 66.8716C162.906 66.2746 163.353 65.1627 165.801 65.1667C167.655 65.1697 168.025 65.5412 168.245 67.1734C168.611 70.1411 170.095 70.0694 171.361 67.1043C172.329 64.8806 172.849 64.4364 174.777 64.4395C176.706 64.4427 177.3 64.0728 177.97 62.2194C178.715 60.292 179.161 60.0702 182.202 59.8527C186.283 59.5626 187.028 57.561 183.097 57.1838C179.982 56.882 180.355 55.2507 183.546 54.9592C186.587 54.6674 186.664 52.8873 183.698 52.2149C180.881 51.6169 180.808 50.3557 183.553 50.3602C185.111 50.3627 185.928 49.7707 186.969 47.8438C188.532 44.8792 188.089 43.6917 185.493 43.6874C184.454 43.6857 183.861 43.3881 184.084 42.9434C184.307 42.5728 185.569 42.204 186.756 42.206C188.61 42.209 189.203 42.655 189.868 44.4363C191.049 47.6279 192.905 47.0375 193.207 43.4775C193.359 41.6975 193.805 40.7339 194.324 40.9573C195.51 41.3301 195.802 44.446 194.908 46.8924C194.312 48.4491 193.643 48.8931 191.937 48.8903C190.751 48.8884 189.489 49.2572 189.192 49.7018C188.894 50.1464 188.592 53.4097 188.438 56.9699C188.206 62.9037 187.461 64.9053 186.277 63.0489C186.055 62.6035 184.72 62.2304 183.311 62.2281C181.234 62.2248 180.714 62.5948 180.044 64.4481C179.671 65.7085 178.927 66.6716 178.557 66.671C177.444 66.6692 177.513 69.6364 178.626 69.7124C179.145 69.7132 180.777 69.7901 182.186 69.8665C183.966 70.0178 184.856 70.3901 185.002 71.3547C185.223 72.3935 184.704 72.6152 181.291 72.6096C176.767 72.6023 175.507 71.7843 175.512 68.743C175.516 65.9985 174.552 66.1452 173.212 69.1101C172.169 71.4821 172.095 71.482 167.051 71.4738C163.565 71.4681 161.785 71.1685 161.564 70.5747C161.416 69.9068 162.084 69.6112 163.494 69.6135Z" fill="#49D59C"/>
<path d="M187.906 65.0542L190.725 64.8363L190.955 60.6086C191.185 56.01 192.522 54.4544 195.637 54.9787C197.936 55.3534 197.637 56.6139 195.188 57.055C192.443 57.4955 192.292 58.9788 194.812 60.244C196.443 61.0626 196.664 61.7305 196.88 65.7364C197.096 69.7424 196.947 70.3355 195.611 70.7784C193.162 71.5162 192.125 70.4018 193.982 68.9213C195.393 67.8852 195.617 67.2921 195.175 64.9919C194.587 61.8755 192.585 61.2046 192.581 64.0975C192.579 65.136 191.909 66.6185 191.092 67.4331C190.274 68.2477 189.605 69.5818 189.603 70.3977C189.602 71.2137 189.23 71.8807 188.859 71.8801C188.414 71.8793 188.119 70.9145 188.121 69.6535C188.124 67.9475 187.828 67.4277 186.641 67.4258C183.822 67.4212 185.013 65.272 187.906 65.0542Z" fill="#49D59C"/>
</svg>
