<svg width="120" height="60" viewBox="0 0 120 60" fill="none" xmlns="http://www.w3.org/2000/svg">
<path d="M101.086 31.4006C102.894 26.6335 101.291 21.1951 100.264 19.0719C99.4684 17.428 97.8803 15.0445 100.675 16.1952C103.469 17.3459 104.579 21.4691 104.784 23.3869C108.894 20.3047 111.565 23.5924 110.743 25.8527C110.086 27.6609 110.743 28.7978 111.154 29.1403C112.593 30.5787 112.319 31.3321 111.771 31.8115C111.223 32.291 109.839 32.8389 108.688 32.017C107.538 31.1951 108.072 28.6609 108.483 27.4965C109.634 23.0582 105.195 25.8527 105.195 27.4965C106.223 34.8937 100.15 33.8663 101.086 31.4006Z" fill="#0C82EF"/>
<path d="M74.5927 19.3941C75.2258 17.2735 73.4253 16.8178 72.9185 19.1332C72.6608 20.3105 72.4581 21.3935 72.3024 22.3896L72.2897 22.457C66.0895 25.7356 68.6067 26.0576 71.9791 24.9954C71.3688 31.9052 73.4261 33.4022 73.6216 33.7183C75.6489 35.5977 77.8078 32.1009 75.2599 29.0307C74.2476 27.8108 73.891 26.0021 73.8805 24.2041C81.0849 20.4562 77.4394 20.6491 74.067 21.7113C74.2007 20.8223 74.3921 20.0188 74.5927 19.3941Z" fill="#0C82EF"/>
<path d="M86.5102 18.8471C87.1432 16.7265 85.3428 16.2708 84.836 18.5862C84.5783 19.7635 84.3756 20.8465 84.2199 21.8426L84.2072 21.91C78.007 25.1886 80.5242 25.5106 83.8965 24.4484C83.2863 31.3582 85.3436 32.8552 85.5391 33.1713C87.5664 35.0507 89.7252 31.5539 87.1774 28.4837C86.165 27.2638 85.8085 25.4551 85.798 23.6571C93.0024 19.9092 89.3568 20.1021 85.9845 21.1643C86.1182 20.2753 86.3095 19.4718 86.5102 18.8471Z" fill="#0C82EF"/>
<path d="M46.8392 27.852C39.5878 31.7058 39.3827 36.5304 39.7369 38.9375C39.8876 39.9617 40.3029 41.3701 41.868 41.7107C43.6172 42.0914 44.2515 41.5326 45.29 40.6826C46.3068 39.6751 47.4785 38.8795 48.9649 38.4815C51.1944 37.8843 51.1332 36.512 50.3268 35.7885L50.3126 35.7769C49.82 35.3743 48.8485 34.5801 47.1343 35.1477C45.8662 35.5056 44.5703 36.8462 44.0178 37.305C42.9198 38.2164 42.3769 36.6706 42.3852 36.4573C42.3935 36.2441 41.9035 32.3811 47.6323 31.4996C50.9255 31.0246 50.6962 26.3176 46.8392 27.852Z" fill="#0C82EF"/>
<path d="M95.1133 19.1275C88.6678 23.7083 89.0714 28.3408 89.7087 30.5953C89.9798 31.5546 90.5514 32.8479 92.0882 32.9787C93.8058 33.1249 94.3421 32.5125 95.2282 31.5718C96.0739 30.4834 97.0939 29.5782 98.4638 29.0134C100.519 28.1662 100.29 26.8633 99.4296 26.2727L99.4147 26.2634C98.8943 25.9401 97.868 25.3024 96.3016 26.0574C95.1351 26.5568 94.0643 27.9979 93.5936 28.5046C92.6585 29.5113 91.948 28.1027 91.9294 27.898C91.9109 27.6934 90.963 24.0655 96.3238 22.512C99.4095 21.6493 98.6057 17.1831 95.1133 19.1275Z" fill="#0C82EF"/>
<path d="M2.85891 13.3183C1.56303 15.0253 -0.476352 23.134 0.100432 32.0095C0.33262 35.4351 1.5495 43.1398 4.55953 46.5539C6.71542 48.9993 3.41418 38.2319 3.41418 30.55C3.41418 24.5363 4.01488 26.2823 4.55953 28.0419C7.33355 37.0041 15.9539 44.3459 15.9539 34.6569C15.9539 29.4489 16.812 21.7391 19.202 15.2522C19.6999 13.9007 20.5676 12.1794 20.0555 16.1057C19.0933 23.4829 18.6831 34.3934 21.1252 40.6451C22.3608 43.8081 25.3468 47.7117 28.5476 49.8456C31.7484 51.9794 42.4639 55.3688 59.7481 48.9672C66.1497 46.5962 73.8316 44.6995 91.7561 53.4483C94.7435 55.1554 101.444 57.958 104.559 58.9964C107.12 59.8499 110.789 60.4162 114.588 59.4231C118.779 58.3278 120.318 53.1833 118.856 48.9672C114.588 36.6617 104.773 34.8177 98.1577 34.3909C92.8657 34.0495 88.6975 35.1495 87.275 35.7422C79.3785 33.7816 70.2691 36.8363 68.0702 37.8711C43.104 52.364 35.8489 49.1016 32.4347 47.9003C29.6607 46.9242 26.2067 44.2096 24.9662 40.005C22.9545 33.1864 22.7921 20.2376 26.084 6.57657C27.4139 -0.817803 21.263 1.95622 19.202 4.51686C13.117 11.3452 12.163 25.1812 12.163 32.0095C11.9496 34.997 9.67856 31.5559 9.17561 30.55C7.46852 27.1358 6.4231 23.4741 5.86187 17.3726C5.35761 11.8905 4.15478 11.6112 2.85891 13.3183Z" fill="url(#paint0_linear_803_1825)"/>
<path fill-rule="evenodd" clip-rule="evenodd" d="M32.4435 39.4864C33.3204 40.0901 34.4439 40.7603 36.7412 38.7998C37.8406 37.9885 38.2745 39.8014 36.6331 41.5717C35.2956 43.0144 32.2689 43.9641 30.1948 42.3884C28.6811 41.0481 26.4268 37.159 29.5196 32.3253C30.5073 30.7266 33.283 27.8167 36.4841 28.9666C40.4855 30.4039 38.4969 37.587 32.4435 39.4864ZM32.1542 36.6904C34.0851 35.5624 36.5576 32.3275 34.1565 32.7111C33.0821 32.8828 31.9254 34.6172 32.1542 36.6904Z" fill="#0C82EF"/>
<path d="M53.2079 32.3429C50.7168 28.4978 51.0253 35.6093 53.7874 37.7158C56.588 40.2473 66.6144 41.0377 68.8575 32.6924C70.1419 27.9141 68.6655 23.2283 61.3058 20.0388C57.2176 18.267 55.0257 16.9417 54.6811 13.1401C54.2188 8.03979 61.2013 3.67071 62.2763 2.38138C63.2426 1.22249 62.8374 -0.883402 59.2048 1.5885C57.0536 3.06907 52.1722 7.10917 51.1268 11.7482C49.5988 18.5288 54.3891 21.7371 56.8809 23.2253C58.8255 24.1917 62.8031 27.1022 62.2305 30.2395C61.6578 33.3768 59.3702 34.1412 58.1144 34.4693C57.1999 34.6236 55.1777 35.164 53.2079 32.3429Z" fill="#0C82EF"/>
<path fill-rule="evenodd" clip-rule="evenodd" d="M79.2459 27.1967C79.924 27.1352 80.4239 26.5357 80.3624 25.8576C80.3009 25.1795 79.7014 24.6796 79.0233 24.741C78.3451 24.8025 77.8453 25.4021 77.9067 26.0802C77.9682 26.7583 78.5677 27.2582 79.2459 27.1967ZM79.2955 33.6787C78.7449 33.2692 77.5515 32.3815 78.3525 28.722C78.9856 26.6014 79.785 28.5922 80.0638 29.3922C80.3427 30.1922 81.4957 31.5319 81.4957 31.5319C81.4957 31.5319 82.8534 32.8531 80.8812 33.8571C80.8387 33.8788 80.0812 34.136 79.4302 33.7823C79.3923 33.7507 79.3466 33.7168 79.2955 33.6787Z" fill="#0C82EF"/>
<path d="M91.1562 37.4122C96.3022 39.4311 103.286 41.7591 107.603 48.6133C107.069 46.1798 101.448 39.6762 91.1562 37.4122Z" fill="white"/>
<defs>
<linearGradient id="paint0_linear_803_1825" x1="29.4052" y1="28.8943" x2="88.2156" y2="59.8923" gradientUnits="userSpaceOnUse">
<stop stop-color="#0C82EF"/>
<stop offset="0.796875" stop-color="#F78080"/>
</linearGradient>
</defs>
</svg>
